PathFileType	4	(X/Y/Z)	C:\Users\Biomechanik\SynologyDrive\AlexP\Athlete_03\Athlete_3_25_03_31\Squat_bw_01\marker_experimental.trc
DataRate	CameraRate	NumFrames	NumMarkers	Units	OrigDataRate	OrigDataStartFrame	OrigNumFrames
200.000000	200.000000	4	55	mm	200.000000	0	708
Frame#	Time	BL			BR			GLAB			RFHD			LFHD			C7			T6			SPINMOL			SPINM2			SPINM3			T12			BELTOL			BELT2			BELT3			SACROL			SACR2			SACR3			LTHOL			LTH2			LTH3			LSHAOL			LSHA2			LSHA3			LHEE			LTOE			LM5			RTHOL			RTH2			RTH3			RSHAOL			RSHA2			RSHA3			RHEE			RTOE			RM5			STRN			XIPH			LACR			LUAOL			LUA2			LUA3			LLAOL			LLA2			LLA3			LWRR			LWRU			RACR			RUAOL			RUA2			RUA3			RLAOL			RLA2			RLA3			RWRR			RWRU			
		X1	Y1	Z1	X2	Y2	Z2	X3	Y3	Z3	X4	Y4	Z4	X5	Y5	Z5	X6	Y6	Z6	X7	Y7	Z7	X8	Y8	Z8	X9	Y9	Z9	X10	Y10	Z10	X11	Y11	Z11	X12	Y12	Z12	X13	Y13	Z13	X14	Y14	Z14	X15	Y15	Z15	X16	Y16	Z16	X17	Y17	Z17	X18	Y18	Z18	X19	Y19	Z19	X20	Y20	Z20	X21	Y21	Z21	X22	Y22	Z22	X23	Y23	Z23	X24	Y24	Z24	X25	Y25	Z25	X26	Y26	Z26	X27	Y27	Z27	X28	Y28	Z28	X29	Y29	Z29	X30	Y30	Z30	X31	Y31	Z31	X32	Y32	Z32	X33	Y33	Z33	X34	Y34	Z34	X35	Y35	Z35	X36	Y36	Z36	X37	Y37	Z37	X38	Y38	Z38	X39	Y39	Z39	X40	Y40	Z40	X41	Y41	Z41	X42	Y42	Z42	X43	Y43	Z43	X44	Y44	Z44	X45	Y45	Z45	X46	Y46	Z46	X47	Y47	Z47	X48	Y48	Z48	X49	Y49	Z49	X50	Y50	Z50	X51	Y51	Z51	X52	Y52	Z52	X53	Y53	Z53	X54	Y54	Z54	X55	Y55	Z55	

1	0	960.67822265625	36.17581558227551	-1933.671020507812	1063.218994140625	32.95440673828124	86.67112731933594	373.9418029785156	1571.095703125	-1198.43359375	327.3095397949219	1598.87841796875	-1134.06005859375	331.6358337402344	1599.518432617188	-1269.693969726562	139.3754577636719	1424.967407226562	-1208.39599609375	78.3953857421875	1254.220336914062	-1218.6005859375	73.65667724609375	1215.636108398438	-1239.407836914062	67.63568115234375	1207.645385742188	-1189.850463867188	76.94281005859375	1151.102661132812	-1223.791137695312	87.95718383789062	1085.037841796875	-1222.4912109375	68.68154907226562	1056.083374023438	-1239.571899414062	68.34342193603516	1053.738647460938	-1189.165649414062	62.26884841918945	993.6008911132814	-1218.072265625	62.30128479003906	937.4626464843751	-1241.95947265625	62.77181243896484	934.1607666015626	-1190.593017578125	50.4438591003418	875.9970092773439	-1219.641845703125	142.8622436523438	678.5894165039064	-1431.719848632812	106.5189056396484	616.2212524414064	-1398.674194335938	145.3532409667969	616.9986572265626	-1430.144897460938	130.1495819091797	334.1437988281251	-1513.252075195312	90.35746765136719	265.419403076172	-1505.19580078125	136.2861785888672	273.8519897460939	-1525.32763671875	101.7345581054688	67.58770751953134	-1485.696655273438	312.2178649902344	50.66711425781259	-1541.49853515625	242.7931213378906	27.71745491027842	-1627.289794921875	116.0084762573242	688.8322143554689	-1011.238403320312	161.3107757568359	639.1080932617189	-968.4478149414062	124.9047317504883	628.5368041992189	-1000.915222167969	90.39801788330078	348.6372070312501	-930.5817260742188	122.6603164672852	285.3440551757813	-896.8469848632812	84.31932830810547	286.5386657714844	-928.6762084960938	88.95836639404297	63.03495788574224	-962.8931884765625	285.7779541015625	47.94029235839849	-879.6279296875	202.0683135986328	38.72235870361333	-802.6702880859375	310.1636657714844	1325.379028320312	-1211.053833007812	328.0914916992188	1180.77734375	-1211.282470703125	197.3341522216797	1404.255859375	-1373.70166015625	135.9656677246094	1276.113037109375	-1479.018798828125	105.3622741699219	1218.643676757812	-1490.87548828125	146.9838714599609	1226.266967773438	-1519.6875	181.9348754882812	1162.223876953125	-1604.568115234375	260.5363464355469	1166.57568359375	-1613.021850585938	226.6019287109375	1203.9560546875	-1612.419921875	286.0709838867188	1289.463989257812	-1621.834228515625	285.6647033691406	1300.465087890625	-1544.952392578125	195.0271453857422	1393.703247070312	-1055.105102539062	138.1037902832031	1269.144897460938	-953.9766235351561	142.3924407958984	1220.187377929688	-909.3074340820311	109.8539047241211	1209.637084960938	-948.9431762695311	197.4831085205078	1170.414428710938	-809.1255493164061	190.4131164550781	1249.784790039062	-804.8651733398436	232.0191802978516	1221.488647460938	-800.1657714843749	259.3389282226562	1312.360595703125	-798.8895874023436	275.1604614257812	1320.838623046875	-875.0543212890624	
2	0.005	960.6791381835938	36.17957687377942	-1933.666015625	1063.217651367188	32.95286560058593	86.66924285888672	373.9744262695312	1571.069580078125	-1198.449951171875	327.3466186523438	1598.858764648438	-1134.077026367188	331.6401672363281	1599.489868164062	-1269.6689453125	139.3921203613281	1424.97265625	-1208.391723632812	78.40511322021484	1254.22509765625	-1218.589599609375	73.64860534667969	1215.647705078125	-1239.400512695312	67.62626647949219	1207.657348632812	-1189.843627929688	76.92430114746094	1151.11572265625	-1223.78515625	87.93667602539062	1085.045043945312	-1222.486328125	68.64308166503906	1056.085815429688	-1239.577026367188	68.32394409179688	1053.743408203125	-1189.164672851562	62.24996185302734	993.6049194335939	-1218.07275390625	62.27488708496094	937.4583740234376	-1241.959228515625	62.74767684936523	934.1587524414064	-1190.589233398438	50.41944122314453	875.9920654296876	-1219.642211914062	142.8495483398438	678.5910034179689	-1431.720092773438	106.5008010864258	616.2182006835939	-1398.681518554688	145.3392486572266	617.0005493164064	-1430.147583007812	130.1445617675781	334.1415100097657	-1513.252563476562	90.35633087158203	265.415740966797	-1505.192260742188	136.2846069335938	273.8458862304689	-1525.32421875	101.7326889038086	67.58293151855477	-1485.699829101562	312.216796875	50.66880798339853	-1541.497802734375	242.7904968261719	27.7205753326417	-1627.28564453125	115.9868011474609	688.8280639648439	-1011.238891601562	161.2932434082031	639.1074829101564	-968.446044921875	124.8870849609375	628.5406494140626	-1000.912048339844	90.38953399658203	348.6356811523438	-930.5807495117188	122.6542434692383	285.3399353027344	-896.8479614257812	84.314697265625	286.5369873046876	-928.6748046875	88.97467041015625	63.01446533203131	-962.892333984375	285.7840576171875	47.93589401245123	-879.6016235351562	202.0700225830078	38.71570587158208	-802.6746826171875	310.1744384765625	1325.378295898438	-1211.063720703125	328.0785522460938	1180.7724609375	-1211.288818359375	197.3333740234375	1404.263549804688	-1373.70361328125	135.9517364501953	1276.130249023438	-1479.025756835938	105.3224945068359	1218.681640625	-1490.895263671875	146.9539947509766	1226.278686523438	-1519.697265625	181.9080963134766	1162.241333007812	-1604.57861328125	260.5049438476562	1166.586791992188	-1613.041381835938	226.5776214599609	1203.970458984375	-1612.4326171875	286.0569152832031	1289.468627929688	-1621.848876953125	285.6516723632812	1300.469604492188	-1544.964599609375	195.0600891113281	1393.716674804688	-1055.107421875	138.1319580078125	1269.164184570312	-953.9592285156249	142.4303588867188	1220.212890625	-909.2920532226561	109.8816375732422	1209.665161132812	-948.9184570312499	197.5303802490234	1170.437744140625	-809.1134033203124	190.4760437011719	1249.813354492188	-804.8569946289061	232.0795135498047	1221.518188476562	-800.1435546874999	259.4037475585938	1312.378662109375	-798.8938598632811	275.2197875976562	1320.852294921875	-875.0551757812499	
3	0.01	960.6802368164062	36.18367767333996	-1933.660034179688	1063.216064453125	32.95095062255859	86.66725158691406	374.0129089355469	1571.039672851562	-1198.469604492188	327.3905334472656	1598.836303710938	-1134.09765625	331.6479187011719	1599.45751953125	-1269.644409179688	139.4117431640625	1424.978759765625	-1208.386962890625	78.41675567626953	1254.230590820312	-1218.57666015625	73.63957214355469	1215.661010742188	-1239.391845703125	67.61555480957031	1207.671020507812	-1189.83544921875	76.90293884277344	1151.131225585938	-1223.777954101562	87.91285705566406	1085.053588867188	-1222.48046875	68.60048675537109	1056.088989257812	-1239.581420898438	68.30123138427734	1053.7490234375	-1189.163452148438	62.22787094116211	993.6094970703126	-1218.072875976562	62.24411773681641	937.4536132812501	-1241.958740234375	62.71954727172852	934.1565551757814	-1190.584716796875	50.39111328125	875.9865112304689	-1219.642456054688	142.8349914550781	678.5924682617189	-1431.720703125	106.4799499511719	616.2144775390626	-1398.690063476562	145.3230133056641	617.0022583007814	-1430.150756835938	130.1388854980469	334.1387634277345	-1513.253295898438	90.35531616210938	265.4114685058595	-1505.188354492188	136.2828826904297	273.8387756347657	-1525.320190429688	101.7303848266602	67.57730102539071	-1485.703491210938	312.2154846191406	50.67065429687509	-1541.496948242188	242.7872009277344	27.72424697875987	-1627.280517578125	115.9619979858398	688.8234252929689	-1011.239074707031	161.2733001708984	639.1067504882814	-968.4439697265625	124.8670349121094	628.5451049804689	-1000.908142089844	90.37953948974609	348.6339111328126	-930.57958984375	122.6470413208008	285.3350524902344	-896.8492431640625	84.30918121337891	286.5350341796876	-928.6732177734375	88.99268341064453	62.99154281616217	-962.8914184570312	285.7899475097656	47.93152236938482	-879.5751953125	202.0716705322266	38.70910263061528	-802.6788940429688	310.1871643066406	1325.377563476562	-1211.075439453125	328.0639343261719	1180.767333984375	-1211.29638671875	197.3329467773438	1404.272827148438	-1373.705932617188	135.93603515625	1276.150512695312	-1479.033081054688	105.2756576538086	1218.726806640625	-1490.918701171875	146.9237823486328	1226.294921875	-1519.706176757812	181.8773193359375	1162.26171875	-1604.590454101562	260.4691162109375	1166.600219726562	-1613.063720703125	226.5494384765625	1203.9873046875	-1612.446655273438	286.0401000976562	1289.474365234375	-1621.865234375	285.6356201171875	1300.475341796875	-1544.97802734375	195.0979919433594	1393.733154296875	-1055.109497070312	138.166259765625	1269.188842773438	-953.9393920898436	142.4747619628906	1220.242797851562	-909.2755737304686	109.9137496948242	1209.698364257812	-948.8898925781249	197.5851745605469	1170.46630859375	-809.0980834960936	190.5477142333984	1249.847534179688	-804.8473510742186	232.1492156982422	1221.553344726562	-800.1190185546874	259.4786987304688	1312.401123046875	-798.8992309570311	275.2879638671875	1320.868896484375	-875.0568237304686	
4	0.015	960.6815795898438	36.18799591064465	-1933.653076171875	1063.214111328125	32.94863128662109	86.66523742675781	374.0572814941406	1571.00634765625	-1198.492919921875	327.4412841796875	1598.811401367188	-1134.121826171875	331.6601257324219	1599.421875	-1269.621948242188	139.4342803955078	1424.985717773438	-1208.381469726562	78.43027496337891	1254.237182617188	-1218.561645507812	73.62967681884766	1215.676147460938	-1239.381713867188	67.60366058349609	1207.6865234375	-1189.826049804688	76.87887573242188	1151.149047851562	-1223.769409179688	87.88584899902344	1085.063598632812	-1222.4736328125	68.55476379394531	1056.093139648438	-1239.584716796875	68.27537536621094	1053.755493164062	-1189.161743164062	62.20256042480469	993.6146240234376	-1218.072631835938	62.20907211303711	937.4484863281251	-1241.958129882812	62.68748092651367	934.1542968750001	-1190.579711914062	50.3590202331543	875.9804687500001	-1219.642700195312	142.8186340332031	678.5936889648439	-1431.722045898438	106.4564971923828	616.2101440429689	-1398.699951171875	145.3045806884766	617.0036621093751	-1430.154663085938	130.1325836181641	334.1354980468751	-1513.254272460938	90.35451507568359	265.4065856933595	-1505.18408203125	136.2810516357422	273.8306884765626	-1525.315551757812	101.7276458740234	67.57083129882821	-1485.707641601562	312.2139282226562	50.67262268066415	-1541.49609375	242.7832336425781	27.72842597961436	-1627.274536132812	115.9342803955078	688.8182983398439	-1011.23876953125	161.2511749267578	639.1060791015626	-968.4417724609375	124.8448333740234	628.5501708984376	-1000.903381347656	90.36805725097656	348.6318969726563	-930.5783081054688	122.6387252807617	285.3294372558594	-896.8508911132812	84.30277252197266	286.5328369140626	-928.6714477539062	89.01190948486328	62.96674346923834	-962.890625	285.7954406738281	47.92728805541998	-879.5493774414062	202.0731964111328	38.70273971557622	-802.6828002929688	310.201904296875	1325.377075195312	-1211.088623046875	328.0478210449219	1180.762084960938	-1211.30517578125	197.3330078125	1404.283813476562	-1373.708740234375	135.9187622070312	1276.173583984375	-1479.040893554688	105.2219619750977	1218.77880859375	-1490.945678710938	146.8940582275391	1226.31591796875	-1519.713989257812	181.8427886962891	1162.284790039062	-1604.603759765625	260.4291381835938	1166.616088867188	-1613.088500976562	226.5175170898438	1204.0068359375	-1612.4619140625	286.0203857421875	1289.481323242188	-1621.882934570312	285.616455078125	1300.482421875	-1544.992065429688	195.1405792236328	1393.752685546875	-1055.110961914062	138.2069549560547	1269.219116210938	-953.9173583984374	142.5254974365234	1220.277099609375	-909.2585449218749	109.950080871582	1209.736938476562	-948.8575439453124	197.6471862792969	1170.500122070312	-809.0794067382811	190.6275177001953	1249.8876953125	-804.8361816406249	232.227783203125	1221.59423828125	-800.0927124023436	259.5633850097656	1312.427978515625	-798.9059448242186	275.364501953125	1320.888671875	-875.0595092773436	
